<?xml version="1.0" standalone="no"?>
<!DOCTYPE svg PUBLIC "-//W3C//DTD SVG 1.1//EN" "http://www.w3.org/Graphics/SVG/1.1/DTD/svg11.dtd" >
<!--
2013-9-30: Created.
-->
<svg>
<metadata>
Created by iconfont
</metadata>
<defs>

<font id="iconfont" horiz-adv-x="1024" >
  <font-face
    font-family="iconfont"
    font-weight="500"
    font-stretch="normal"
    units-per-em="1024"
    ascent="896"
    descent="-128"
  />
    <missing-glyph />
    
    <glyph glyph-name="x" unicode="x" horiz-adv-x="1001"
d="M281 543q-27 -1 -53 -1h-83q-18 0 -36.5 -6t-32.5 -18.5t-23 -32t-9 -45.5v-76h912v41q0 16 -0.5 30t-0.5 18q0 13 -5 29t-17 29.5t-31.5 22.5t-49.5 9h-133v-97h-438v97zM955 310v-52q0 -23 0.5 -52t0.5 -58t-10.5 -47.5t-26 -30t-33 -16t-31.5 -4.5q-14 -1 -29.5 -0.5
t-29.5 0.5h-32l-45 128h-439l-44 -128h-29h-34q-20 0 -45 1q-25 0 -41 9.5t-25.5 23t-13.5 29.5t-4 30v167h911zM163 247q-12 0 -21 -8.5t-9 -21.5t9 -21.5t21 -8.5q13 0 22 8.5t9 21.5t-9 21.5t-22 8.5zM316 123q-8 -26 -14 -48q-5 -19 -10.5 -37t-7.5 -25t-3 -15t1 -14.5
t9.5 -10.5t21.5 -4h37h67h81h80h64h36q23 0 34 12t2 38q-5 13 -9.5 30.5t-9.5 34.5q-5 19 -11 39h-368zM336 498v228q0 11 2.5 23t10 21.5t20.5 15.5t34 6h188q31 0 51.5 -14.5t20.5 -52.5v-227h-327z" />
    

    
    <glyph glyph-name="back" unicode="&#58985;" d="M253.002342 330.042155l457.242779-441.255269c25.580016-22.382514 63.950039-22.382514 86.332553 0 22.382514 25.580016 22.382514 60.752537-3.197502 86.332553L358.519906 393.992194l415.675254 399.687744c25.580016 22.382514 25.580016 60.752537 0 83.135051s-63.950039 22.382514-86.332553 0L230.619828 435.559719c-25.580016-22.382514-25.580016-60.752537 0-83.135051"  horiz-adv-x="1024" />

    
    <glyph glyph-name="my" unicode="&#58928;" d="M880.822685 430.715441c63.676603 42.038221 105.699341 114.222927 105.699341 196.231689 0 129.778686-105.207365 234.98433-234.98433 234.98433s-234.98261-105.207365-234.98261-234.98433c0-82.010482 42.021019-154.193469 105.697621-196.231689-160.214165-28.400484-319.318801-204.318344-319.318801-356.289316l0-17.392931c0-92.314474 149.426797-92.314474 320.43177-92.314474L879.709716-35.28127900000004c171.030775 0 320.43177 0 320.43177 85.45088l0.00172 24.256525C1200.144927 226.39709700000003 1041.012767 402.311517 880.822685 430.715441zM559.277947 626.947131c0 106.182717 86.077033 192.25975 192.25975 192.25975S943.797447 733.131568 943.797447 626.947131c0-106.180997-86.077033-192.25975-192.25975-192.25975S559.277947 520.766134 559.277947 626.947131zM1157.418627 50.16960099999994c0-42.616207-209.334444-42.7263-277.70719-42.7263L623.363956 7.4433010000000195c-93.532375 0-277.71063 0.438651-277.71063 42.7263l0 21.35971c0 131.173767 182.588792 320.43005 320.43349 320.43005l170.90004 0c137.872221 0 320.43005-189.221879 320.43005-320.43005L1157.418627 50.16960099999994 1157.418627 50.16960099999994z"  horiz-adv-x="1449" />

    
    <glyph glyph-name="font-size" unicode="&#59060;" d="M269.597915 315.138104l97.391862 313.316496L464.586891 315.138104 269.597915 315.138104M460.276609 766.999399L302.335538 766.999399 65.988374-1.0519140000000107 175.490078-1.0519140000000107l62.191221 199.50451 261.182602 0 63.114853-199.50451 137.108038 0L460.276609 766.999399M708.528362 193.42393300000003l60.138705 166.253758 51.210263-166.253758L708.528362 193.42393300000003M822.750852 439.931048l-91.542193 0L657.831229 232.01122499999997l31.813991-107.962317 0.513129 1.539387 149.628382 0 41.973943-126.332331 79.329725 0L822.750852 439.931048"  horiz-adv-x="1024" />

    
    <glyph glyph-name="background" unicode="&#58961;" d="M848.666814-7.197354l-545.757001 0C247.927674-7.197354 203.219405 34.711003 203.219405 86.238412L203.219405 509.025094C203.219405 560.552503 247.927674 602.46086 302.909813 602.46086l545.757001 0C903.648953 602.46086 948.357222 560.552503 948.357222 509.025094l0-422.809261C948.357222 34.711003 903.648953-7.197354 848.666814-7.197354zM302.909813 534.721058C285.591003 534.721058 270.959206 522.956913 270.959206 509.025094l0-422.809261C270.959206 72.306593 285.591003 60.542448 302.909813 60.542448l545.757001 0C865.985623 60.542448 880.61742 72.306593 880.61742 86.238412L880.61742 509.025094C880.61742 522.956913 865.985623 534.721058 848.666814 534.721058L302.909813 534.721058zM704.335877 304.112194l51.662889-127.847585L508.048512 178.567762l46.492084 47.9372 41.343859-9.122293 25.831444 50.240353 41.321279-36.511753L704.335877 304.112194M714.542007 459.687938l-69.162337-122.202602-0.15806-0.293539-43.940551 38.860066-39.831003-77.494333-1.964454-3.793429L532.209041 300.792944l-26.328203-27.14108-46.492084-47.91462-109.986858-113.441588 157.991797-1.445116 247.972834-2.303153 101.429063-0.925777-38.024609 94.045424-51.662889 127.847585L714.542007 459.687938 714.542007 459.687938zM421.273826 317.479515c-51.23387 0-92.893848 40.508401-92.893848 90.319735 0 49.833914 41.682558 90.342315 92.893848 90.342315s92.893848-40.530981 92.893848-90.342315C514.167674 357.987916 472.507696 317.479515 421.273826 317.479515zM421.273826 430.401764c-13.864079 0-25.154046-10.13839-25.154046-22.602514 0-12.441544 11.289967-22.579934 25.154046-22.579934s25.154046 10.13839 25.154046 22.579934C446.427872 420.263374 435.137905 430.401764 421.273826 430.401764zM203.219405 37.962514 191.929438 37.962514C135.908622 37.962514 90.319735 83.5514 90.319735 139.572216l0 541.918412C90.319735 737.511444 135.908622 783.100331 191.929438 783.100331l541.918412 0C789.868666 783.100331 835.457552 737.511444 835.457552 681.490628L835.457552 647.620728l-67.739802 0L767.717751 681.490628C767.717751 700.164234 752.521455 715.360529 733.84785 715.360529l-541.918412 0C173.255832 715.360529 158.059537 700.164234 158.059537 681.490628l0-541.918412C158.059537 120.898611 173.255832 105.702315 191.929438 105.702315L203.219405 105.702315 203.219405 37.962514z"  horiz-adv-x="1024" />

    
    <glyph glyph-name="modify" unicode="&#58954;" d="M1084.321161 538.7098229999999c-28.979917 77.880844-71.827261 148.248375-127.425768 209.213534-55.255042 60.535827-121.458052 109.608486-196.71997 145.801182-8.500776 4.035722-18.633013 2.618926-25.588193-3.863989L250.901681 448.12075l-55.856107-50.961721c-3.005325-2.447193-5.581317-5.624251-7.169846-9.574106-0.257599-0.558132-0.515199-1.33093-0.772798-2.017861l-130.044694-337.927299-55.512641-144.29852c-3.219991-8.200243-1.373863-17.345017 4.507987-23.913798 4.465054-4.851453 10.647436-7.427445 17.044485-7.427445 2.060794 0 4.250388 0.214666 6.354115 0.901597l148.763574 42.160413 349.819798 99.261582c2.189594 0.601065 4.379187 1.588529 6.397048 2.833592 1.07333 0.772798 2.189594 1.588529 3.177058 2.447193l57.10117 52.163851L1078.310511 513.550962C1085.265691 519.905077 1087.627018 529.951449 1084.321161 538.7098229999999M90.93254 7.1537459999999555c0.901597-0.601065 2.017861-0.901597 2.919458-1.416796 9.917572-6.225316 19.105279-13.094629 26.74739-21.552472 7.642111-8.371976 13.652761-18.117815 18.976479-28.507652 0.558132-0.901597 0.815731-2.103727 1.245063-3.091191l-79.598172-22.625802L90.93254 7.1537459999999555zM510.347071 57.38560199999995l-323.931072-91.920003c-0.901597 2.017861-2.490126 3.520523-3.520523 5.452518-7.470379 16.271687-16.44342 31.512976-28.164186 44.435873-11.806633 12.922896-26.232192 23.141-41.774014 32.114041-1.931994 1.07333-3.091191 2.833592-5.023186 3.863989l120.942854 314.1423 36.192696 32.929772 29.280449-32.028175 252.060878-276.060543L510.347071 57.38560199999995zM580.54287 121.52781900000002l-73.201124 80.156304 384.466899 351.021928c4.937319 4.593854 7.470379 10.819169 7.470379 17.173284 0 5.452518-1.931994 11.076768-6.053583 15.541822-8.543709 9.35944-23.226867 9.960505-32.672173 1.416796l-384.466899-351.021928-14.98369 16.529286-57.616368 63.240619 384.295166 350.978995c5.023186 4.636787 7.556245 10.819169 7.556245 17.216217 0 5.452518-2.017861 11.076768-6.053583 15.498889-8.629575 9.402373-23.312733 9.960505-32.715106 1.416796L372.230934 349.589032 299.201543 429.745336l454.83443 415.464677c64.142216-32.843906 120.856987-75.948849 168.727517-128.542032 48.128129-52.636116 85.866421-113.00021 112.699677-179.589619L580.54287 121.52781900000002z"  horiz-adv-x="1086" />

    
    <glyph glyph-name="font-size-up" unicode="&#58883;" d="M636.768 49.29600000000005l-272 704-0.096-0.032C357.728 771.216 340.416 784 320 784c-20.4 0-37.728-12.784-44.672-30.736l-0.112 0.032-272-704 0.112-0.048C1.248 43.888000000000034 0 38.096000000000004 0 32c0-26.512 21.488-48 48-48 20.4 0 37.728 12.784 44.672 30.736l0.112-0.032L155.088 176l329.808 0 62.32-161.296 0.112 0.032C554.272-3.216000000000008 571.6-16 592-16c26.512 0 48 21.488 48 48 0 6.112-1.248 11.888-3.328 17.264L636.768 49.29600000000005zM192.192 272L320 602.816 447.808 272 192.192 272zM976 432l-96 0 0 96c0 26.512-21.488 48-48 48s-48-21.488-48-48l0-96-96 0c-26.512 0-48-21.488-48-48 0-26.512 21.488-48 48-48l96 0 0-96c0-26.512 21.488-48 48-48s48 21.488 48 48l0 96 96 0c26.512 0 48 21.488 48 48C1024 410.512 1002.512 432 976 432z"  horiz-adv-x="1024" />

    
    <glyph glyph-name="logout" unicode="&#59481;" d="M733.726 248.234 778.98 202.98 960 384 778.98 565.02 733.724 519.764 837.49 416 384 416 384 352 837.49 352ZM782.982 112.468C710.458 39.942 614.036 0 511.472 0c-102.574 0-199.012 39.942-271.544 112.47C167.394 184.998 128 281.43 128 384c0 102.562 39.394 198.99 111.93 271.522C312.464 728.054 408.9 768 511.472 768c102.558 0 198.982-39.946 271.51-112.476 5.054-5.056 9.932-10.242 14.666-15.524l81.462 0c-80.948 116.056-215.418 192-367.638 192C264.042 832 64 631.404 64 384c0-247.43 200.042-448 447.472-448 152.224 0 286.7 75.94 367.644 192l-81.46 0C792.92 122.714 788.042 117.528 782.982 112.468z"  horiz-adv-x="1024" />

    
    <glyph glyph-name="addbookshelf" unicode="&#58944;" d="M1110.8096-35.45600000000002l-197.8368-52.992c-54.6304-14.6432-110.7712 17.7664-125.4144 72.4224l-172.2624 642.9184c-14.6432 54.6304 17.7664 110.7968 72.4224 125.4144l197.8368 53.0176c54.6304 14.6432 110.7712-17.792 125.4144-72.4224l172.2624-642.9184C1197.8496 35.327999999999975 1165.4144-20.81280000000004 1110.8096-35.45600000000002zM1133.7472 76.72320000000002L961.4848 719.6416c-7.3216 27.3152-35.3792 43.52-62.6944 36.1984l-197.8368-53.0176c-27.3152-7.3216-43.52-35.3792-36.1984-62.6944l172.2624-642.9184c7.3216-27.3152 35.4048-43.52 62.72-36.1984l197.8368 53.0176C1124.864 21.324799999999982 1141.0688 49.408000000000015 1133.7472 76.72320000000002zM776.9088 617.1648l98.9184 26.496 13.2608-49.4592-98.9184-26.496L776.9088 617.1648zM598.8096-35.45600000000002l-197.8368-52.992c-54.6304-14.6432-110.7712 17.7664-125.4144 72.4224L103.296 626.8672C88.6528 681.4976 121.0624 737.6384 175.6928 752.2816l197.8368 53.0176c54.6304 14.6432 110.7712-17.792 125.4144-72.4224l172.2624-642.9184C685.8496 35.327999999999975 653.4144-20.81280000000004 598.8096-35.45600000000002zM621.7472 76.72320000000002L449.4848 719.6416c-7.3216 27.3152-35.3792 43.52-62.6944 36.1984L188.9536 702.8224c-27.3152-7.3216-43.52-35.3792-36.1984-62.6944l172.2624-642.9184c7.3216-27.3152 35.4048-43.52 62.72-36.1984l197.8368 53.0176C612.8384 21.324799999999982 629.0688 49.408000000000015 621.7472 76.72320000000002zM264.9088 617.1648l98.9184 26.496 13.2608-49.4592-98.9184-26.496L264.9088 617.1648zM25.6-128c-14.1312 0-25.6 11.4688-25.6 25.6L0 870.4c0 14.1312 11.4688 25.6 25.6 25.6s25.6-11.4688 25.6-25.6l0-972.8C51.2-116.53120000000001 39.7312-128 25.6-128z"  horiz-adv-x="1187" />

    
    <glyph glyph-name="list" unicode="&#59109;" d="M860.444444 597.333333l-384 0c-66.659556 0-120.888889 54.229333-120.888889 120.888889S409.784889 839.111111 476.444444 839.111111l384 0c66.659556 0 120.888889-54.229333 120.888889-120.888889S927.104 597.333333 860.444444 597.333333zM476.444444 782.222222c-35.285333 0-64-28.714667-64-64s28.714667-64 64-64l384 0c35.285333 0 64 28.714667 64 64S895.729778 782.222222 860.444444 782.222222L476.444444 782.222222zM860.444444-71.111111l-384 0c-66.659556 0-120.888889 54.229333-120.888889 120.888889s54.229333 120.888889 120.888889 120.888889l384 0c66.659556 0 120.888889-54.229333 120.888889-120.888889S927.104-71.111111 860.444444-71.111111zM476.444444 113.777778c-35.285333 0-64-28.714667-64-64s28.714667-64 64-64l384 0c35.285333 0 64 28.714667 64 64S895.729778 113.777778 860.444444 113.777778L476.444444 113.777778zM860.444444 256l-384 0c-66.659556 0-120.888889 54.229333-120.888889 120.888889s54.229333 120.888889 120.888889 120.888889l384 0c66.659556 0 120.888889-54.229333 120.888889-120.888889S927.104 256 860.444444 256zM476.444444 440.888889c-35.285333 0-64-28.714667-64-64s28.714667-64 64-64l384 0c35.285333 0 64 28.714667 64 64S895.729778 440.888889 860.444444 440.888889L476.444444 440.888889zM177.777778 597.333333l-14.222222 0C96.896 597.333333 42.666667 651.562667 42.666667 718.222222S96.896 839.111111 163.555556 839.111111l14.222222 0c66.659556 0 120.888889-54.229333 120.888889-120.888889S244.437333 597.333333 177.777778 597.333333zM163.555556 782.222222C128.270222 782.222222 99.555556 753.507556 99.555556 718.222222S128.270222 654.222222 163.555556 654.222222l14.222222 0c35.285333 0 64 28.714667 64 64S213.063111 782.222222 177.777778 782.222222L163.555556 782.222222zM177.777778-71.111111l-14.222222 0C96.896-71.111111 42.666667-16.881778 42.666667 49.777778S96.896 170.666667 163.555556 170.666667l14.222222 0c66.659556 0 120.888889-54.229333 120.888889-120.888889S244.437333-71.111111 177.777778-71.111111zM163.555556 113.777778C128.270222 113.777778 99.555556 85.063111 99.555556 49.777778S128.270222-14.222222 163.555556-14.222222l14.222222 0c35.285333 0 64 28.714667 64 64S213.063111 113.777778 177.777778 113.777778L163.555556 113.777778zM177.777778 256l-14.222222 0C96.896 256 42.666667 310.229333 42.666667 376.888889S96.896 497.777778 163.555556 497.777778l14.222222 0c66.659556 0 120.888889-54.229333 120.888889-120.888889S244.437333 256 177.777778 256zM163.555556 440.888889C128.270222 440.888889 99.555556 412.174222 99.555556 376.888889S128.270222 312.888889 163.555556 312.888889l14.222222 0c35.285333 0 64 28.714667 64 64S213.063111 440.888889 177.777778 440.888889L163.555556 440.888889z"  horiz-adv-x="1024" />

    
    <glyph glyph-name="password" unicode="&#58882;" d="M819.2 481.28v102.4c0 168.96-138.24 307.2-307.2 307.2s-307.2-138.24-307.2-307.2v-102.4h51.2v102.4c0 143.36 112.64 256 256 256s256-112.64 256-256v-102.4h51.2zM819.2 440.32c30.72 0 51.2-20.48 51.2-51.2v-409.6c0-30.72-20.48-51.2-51.2-51.2h-614.4c-30.72 0-51.2 20.48-51.2 51.2v409.6c0 30.72 20.48 51.2 51.2 51.2h614.4M819.2 491.52h-614.4c-56.32 0-102.4-46.080-102.4-102.4v-409.6c0-56.32 46.080-102.4 102.4-102.4h614.4c56.32 0 102.4 46.080 102.4 102.4v409.6c0 56.32-46.080 102.4-102.4 102.4zM512 225.28v0M512 276.48c-30.72 0-51.2-20.48-51.2-51.2v-102.4c0-30.72 20.48-51.2 51.2-51.2s51.2 20.48 51.2 51.2v102.4c0 30.72-20.48 51.2-51.2 51.2z"  horiz-adv-x="1024" />

    
    <glyph glyph-name="home" unicode="&#58881;" d="M810.22056-128H306.580936c-89.899965 0-122.530881 73.273467-122.530881 122.530881V366.214171a28.276357 28.276357 0 1 0 56.552714 0v-371.68329c0.150807-10.858121 4.052945-65.978167 65.978167-65.978167h503.639624c10.858121 0.150807 65.978167 4.052945 65.978167 65.978167V366.214171a28.276357 28.276357 0 1 0 56.552714 0v-371.68329c0-89.881114-73.254616-122.530881-122.530881-122.530881z m-84.847923 223.55288a28.276357 28.276357 0 0 0-28.276357 28.276357V363.537343c-0.150807 10.858121-4.052945 65.978167-65.978167 65.978167h-145.472432c-10.858121-0.150807-65.978167-4.052945-65.978167-65.978167v-239.726957a28.276357 28.276357 0 1 0-56.552714 0V363.537343c0 89.899965 73.273467 122.530881 122.530881 122.530881h145.472432c89.899965 0 122.530881-73.273467 122.530882-122.530881v-239.726957a28.276357 28.276357 0 0 0-28.276358-28.257506zM1087.800133 347.061652c-7.238747 0-14.477495 2.752232-20.00081 8.275547L605.066163 818.108061c-7.823125 7.596915-49.559029 43.790652-93.311979 0L48.983322 355.35605A28.276357 28.276357 0 1 0 9.000553 395.338819L471.752564 858.09083C506.589036 892.927303 549.418292 904.256696 592.322951 889.911158a144.963458 144.963458 0 0 0 52.70713-31.820328l462.752011-462.752011a28.276357 28.276357 0 0 0-19.981959-48.277167z"  horiz-adv-x="1116" />

    
    <glyph glyph-name="rank" unicode="&#58900;" d="M277.333333 512H192a64 64 0 0 1-64-64v-384a64 64 0 0 1 64-64h85.333333a64 64 0 0 1 64 64V448a64 64 0 0 1-64 64z m21.333334-426.666667c0-35.349333-28.672-42.666667-64-42.666666-35.349333 0-64 7.317333-64 42.666666V426.666667c0 35.349333 28.650667 42.666667 64 42.666666 35.328 0 64-7.317333 64-42.666666v-341.333334zM554.666667 768h-85.333334a64 64 0 0 1-64-64v-640a64 64 0 0 1 64-64h85.333334a64 64 0 0 1 64 64V704a64 64 0 0 1-64 64z m21.333333-682.666667c0-35.349333-28.672-42.666667-64-42.666666s-64 7.317333-64 42.666666V682.666667c0 35.349333 28.672 42.666667 64 42.666666s64-7.317333 64-42.666666v-597.333334z m256 256h-85.333333a64 64 0 0 1-64-64v-213.333333a64 64 0 0 1 64-64h85.333333a64 64 0 0 1 64 64V277.33333300000004a64 64 0 0 1-64 64z m21.333333-256c0-35.349333-28.672-42.666667-64-42.666666s-64 7.317333-64 42.666666v170.666667c0 35.349333 28.672 42.666667 64 42.666667s64-7.317333 64-42.666667v-170.666667z"  horiz-adv-x="1024" />

    
    <glyph glyph-name="search" unicode="&#58888;" d="M429.056428 106.66764699999999c-49.206702 0-96.955192 9.644661-141.918244 28.655644-43.415812 18.36323-82.397638 44.644803-115.867937 78.114078-33.470299 33.470299-59.750849 72.453149-78.113056 115.867938-19.022239 44.963051-28.656667 92.702332-28.656666 141.909034 0 49.213865 9.635451 96.963379 28.656666 141.92336 18.35709 43.414789 44.642756 82.397638 78.113056 115.864867 33.470299 33.468253 72.452125 59.746756 115.867937 78.103846 44.963051 19.012006 92.711542 28.652574 141.918244 28.652573s96.950076-9.640568 141.91415-28.652573c43.414789-18.35709 82.400708-44.635593 115.872031-78.103846 33.470299-33.467229 59.755965-72.452125 78.115102-115.867937 19.015076-44.959981 28.655643-92.709495 28.655643-141.92029 0-49.206702-9.640568-96.950076-28.662806-141.909034-18.358113-43.414789-44.63764-82.397638-78.107939-115.867938-33.471322-33.469276-72.458265-59.750849-115.872031-78.114078-44.964074-19.010983-92.707448-28.655643-141.91415-28.655644z m0 675.957189c-171.724083 0-311.425845-139.696646-311.425846-311.410495 0-171.714873 139.702786-311.405379 311.425846-311.405379 171.71999 0 311.420729 139.691529 311.420728 311.405379 0 171.71078-139.700739 311.410496-311.420728 311.410495zM879.73992-62.33137099999999c-22.087041 0-42.841737 8.547677-58.45125 24.073278L664.051533 114.16541199999995l36.985356 38.142715 157.656693-152.832827c5.599532-5.592368 13.068643-8.676613 21.046338-8.676614 7.968485 0 15.436574 3.085268 21.040199 8.676614 5.606695 5.611811 8.702196 13.110599 8.702196 21.087271 0 7.978718-3.092431 15.44783-8.691963 21.040198l-0.300852 0.310062L747.970828 199.237973l38.149878 36.986379 152.386666-157.195182c15.547091-15.617699 24.109094-36.366256 24.109094-58.464553 0-22.154579-8.616238-42.986023-24.25338-58.651818-15.646352-15.637142-36.45733-24.24417-58.623166-24.24417zM270.982226 313.08999700000004c-42.276872 42.256406-65.552995 98.432847-65.542762 158.183695 0.005117 59.728336 23.280216 115.89966 65.537646 158.171416l37.578873-37.563524c-66.51081-66.530252-66.51081-174.736697-0.010233-241.21783l-37.563524-37.573757z"  horiz-adv-x="1024" />

    
    <glyph glyph-name="config" unicode="&#58884;" d="M1439.822769 73.98681299999998l-11.218989-38.439384c-3.094505-10.56633-14.426022-16.665319-25.194901-13.570814l-23.529494 6.774154c-10.746374 3.094505-24.621011-1.867956-30.776264-11.005187l-22.888088-28.266901c-7.820659-7.854418-9.744879-22.224176-4.332308-31.845274l11.939165-21.13266a19.771077 19.771077 0 0 0-7.944439-27.186637l-35.671209-19.185934a20.783824 20.783824 0 0 0-27.749275 7.98945l-11.83789 21.13266c-5.457582 9.643604-18.904615 15.731341-29.876044 13.424527l-36.706462-3.76967c-11.185231-0.191297-22.910593-8.945934-26.005098-19.523517l-6.706638-22.97811c-3.072-10.543824-14.45978-16.642813-25.206154-13.55956l-39.193318 11.286506c-10.825143 3.117011-17.115429 14.302242-14.032176 24.846065l6.706637 22.989363c3.083253 10.577582-2.048 24.182154-11.432791 30.292396l-29.032088 22.685538c-8.011956 7.764396-22.606769 9.756132-32.374154 4.501099l-21.481494-11.545319a20.750066 20.750066 0 0 0-27.715517 7.966945l-19.82734 35.176088a19.883604 19.883604 0 0 0 7.933186 27.186638l21.458989 11.51156c9.801143 5.24378 15.866374 18.409495 13.51455 29.200879l-4.152264 36.053802c-0.236308 10.982681-9.238505 22.516747-20.02989 25.656264l-23.518242 6.762901c-10.791385 3.105758-17.092923 14.302242-14.00967 24.879824l11.207736 38.394374c3.083253 10.577582 14.437275 16.665319 25.217407 13.559561l23.518242-6.79666c10.802637-3.105758 24.643516 1.867956 30.776263 11.027693l22.899341 28.300659c7.831912 7.831912 9.767385 22.145407 4.298549 31.822769l-11.882901 21.132659a19.804835 19.804835 0 0 0 7.933187 27.175385l35.648703 19.174681a20.738813 20.738813 0 0 0 27.704264-7.978197l11.972923-21.155165c5.423824-9.677363 18.814593-15.720088 29.786022-13.469539l36.695209 3.780923c11.218989 0.157538 22.888088 8.945934 25.971341 19.523517l6.729142 23.045626c3.083253 10.543824 14.448527 16.676571 25.251165 13.559561l39.193319-11.275253c10.746374-3.094505 17.070418-14.313495 13.987165-24.857319l-6.71789-23.045626c-3.094505-10.577582 2.093011-24.227165 11.455296-30.303649l28.919561-22.663032c8.06822-7.730637 22.696791-9.733626 32.475428-4.456088l21.458989 11.534066a20.772571 20.772571 0 0 0 27.749275-7.989451l19.827341-35.131077c5.468835-9.677363 1.901714-21.897846-7.94444-27.19789l-21.458989-11.51156c-9.767385-5.300044-15.866374-18.409495-13.480791-29.189627l4.118506-36.042549c0.258813-11.01644 9.283516-22.561758 20.063648-25.667517l23.540747-6.774154c10.768879-3.094505 17.059165-14.257231 13.975912-24.834813z m-232.357978 150.15666c-54.14822 15.596308-110.580747-14.763604-126.053275-67.78655-15.48378-53.034198 15.866374-108.622769 70.014594-124.207824 54.125714-15.585055 110.546989 14.741099 126.030769 67.786549 15.472527 53.011692-15.866374 108.634022-69.992088 124.207825z m-238.862066 95.288263h-46.518857c-21.222681 0-43.896967-16.519033-50.243516-36.672703l-26.691517-64.365714c-10.071209-18.668308-5.941451-46.215033 9.058462-61.102418l33.004307-32.677978a38.304352 38.304352 0 0 0 0-54.418286l-54.84589-54.39578a39.15956 39.15956 0 0 0-54.834637 0l-32.835517 32.745495c-15.078681 14.898637-42.827956 18.983385-61.608791 8.900923l-64.917099-26.466462c-20.288703-6.290286-37.010286-28.694505-37.010285-49.860923v-46.001231c0-21.110154-17.509275-38.428132-38.743209-38.428132h-77.463912c-21.391473 0-38.810725 17.317978-38.810726 38.428132v46.001231c0 21.166418-16.597802 43.570637-36.965274 49.860923l-65.018374 26.466462c-18.724571 10.082462-46.395077 5.997714-61.394989-8.900923l-33.038066-32.745495a39.058286 39.058286 0 0 0-54.755868 0l-54.879648 54.39578a38.529407 38.529407 0 0 0 0 54.418286l32.993055 32.677978c15.078681 14.887385 19.140923 42.43411 9.103472 61.102418l-26.770286 64.365714c-6.279033 20.15367-28.818286 36.672703-50.164747 36.717714H38.765714c-21.312703 0-38.776967 17.317978-38.776967 38.484396v76.856264c0 21.166418 17.464264 38.439385 38.776967 38.439384l46.485099-0.033758c21.346462 0 43.930725 16.530286 50.243517 36.717714l26.691516 64.410726c10.11622 18.623297 6.02022 46.091253-9.103472 61.057406l-32.914286 32.711736a38.349363 38.349363 0 0 0 0 54.384528l54.800879 54.350769a39.058286 39.058286 0 0 0 54.755868 0l33.083077-32.700483c15.044923-14.977407 42.659165-19.028396 61.473758-9.035956l64.894594 26.477714c20.367473 6.245275 36.965275 28.694505 36.965274 49.860923V857.583121c0 21.110154 17.464264 38.46189 38.810726 38.46189h77.463912c21.233934 0 38.743209-17.351736 38.743209-38.46189v-46.125011c0-21.166418 16.721582-43.615648 37.010285-49.860923l64.793319-26.477714c18.814593-9.99244 46.563868-5.907692 61.56378 9.035956l33.004308 32.700483a39.15956 39.15956 0 0 0 54.834637 0l54.84589-54.350769a38.315604 38.315604 0 0 0 0-54.429539l-33.004307-32.666725c-14.999912-14.966154-19.12967-42.43411-9.058462-61.057406l26.691517-64.365715c6.346549-20.198681 28.930813-36.728967 50.243516-36.728967h46.518857c21.278945 0 38.698198-17.272967 38.698198-38.439384v-76.935033c0-21.166418-17.419253-38.450637-38.698198-38.450638z m-464.828483 269.165715c-107.024879 0-193.749802-86.038505-193.749802-192.163165 0-106.16967 86.724923-192.151912 193.749802-192.151912 106.979868 0 193.704791 85.982242 193.704791 192.151912 0 106.124659-86.724923 192.163165-193.704791 192.163165z"  horiz-adv-x="1440" />

    
    <glyph glyph-name="font-size-down" unicode="&#58971;" d="M639.93728 49.29600000000005l-272 704-0.112-0.032A47.888 47.888 0 0 1 323.16928 784a47.92 47.92 0 0 1-44.672-30.736l-0.096 0.032-272-704 0.112-0.048A47.216 47.216 0 0 1 3.16928 32a47.92 47.92 0 1 1 92.672-17.264l0.112-0.032L158.27328 176h329.808l62.32-161.296 0.096 0.032A47.92 47.92 0 0 1 643.16928 32c0 6.112-1.248 11.888-3.328 17.264l0.096 0.032zM195.36128 272L323.16928 602.816 450.97728 272H195.36128zM979.16928 432H691.16928a48 48 0 1 1 0-96h288a48 48 0 1 1 0 96z"  horiz-adv-x="1027" />

    
    <glyph glyph-name="detail" unicode="&#58880;" d="M772.5141333333335 566.5262933333333H257.56501333333335c-12.61568 0-22.937599999999996 10.321919999999999-22.937599999999996 22.937599999999996s10.321919999999999 22.937599999999996 22.937599999999996 22.937599999999996h514.94912c12.61568 0 22.937599999999996-10.321919999999999 22.937599999999996-22.937599999999996s-10.321919999999999-22.937599999999996-22.937599999999996-22.937599999999996zM478.3394133333333 174.2933333333334H257.56501333333335c-12.61568 0-22.937599999999996 10.321919999999999-22.937599999999996 22.937599999999996s10.321919999999999 22.937599999999996 22.937599999999996 22.937599999999996h220.7744c12.61568 0 22.937599999999996-10.321919999999999 22.937599999999996-22.937599999999996s-9.74848-22.937599999999996-22.937599999999996-22.937599999999996zM772.5141333333335 370.40981333333343H257.56501333333335c-12.61568 0-22.937599999999996 10.321919999999999-22.937599999999996 22.937599999999996s10.321919999999999 22.937599999999996 22.937599999999996 22.937599999999996h514.94912c12.61568 0 22.937599999999996-10.321919999999999 22.937599999999996-22.937599999999996s-10.321919999999999-22.937599999999996-22.937599999999996-22.937599999999996zM776.5282133333333 818.2664533333333H253.55093333333335c-100.35199999999999 0-181.78048-81.42847999999998-181.78048-181.78048v-494.30528c0-100.35199999999999 81.42847999999998-181.78048 181.78048-181.78048h222.49472c12.61568 0 22.937599999999996 13.18912 22.937599999999996 25.8048s-10.321919999999999 25.8048-22.937599999999996 25.8048H253.55093333333335c-75.12064000000001 0-130.17087999999998 55.05024-130.17087999999998 130.17087999999998V636.4859733333333c0 75.12064000000001 55.05024 130.17087999999998 130.17087999999998 130.17087999999998h522.4038400000001c75.12064000000001 0 130.17087999999998-55.05024 130.17087999999998-130.17087999999998v-370.44224h-95.76448c-90.03008 0-162.85695999999996-73.40032000000001-162.85695999999996-162.85695999999996V-12.074666666666644c0-6.30784 2.2937600000000002-11.468799999999998 6.30784-15.482879999999998 4.01408-6.88128 11.468799999999998-12.04224 20.0704-12.04224h45.87519999999999c10.321919999999999 0 28.672 3.44064 67.09248000000001 32.68608 22.364160000000002 16.62976 48.7424 40.1408 73.97376 66.51904 25.23136 25.23136 48.16896 52.18304 64.79872 74.5472 28.09856 37.2736 31.539199999999997 54.4768 31.539199999999997 64.79872V636.4859733333333c1.1468800000000001 100.35199999999999-80.2816 181.78048-180.6336 181.78048z m105.51296-660.6028799999999c-15.482879999999998-20.643839999999997-36.700160000000004-44.728320000000004-59.63776-67.66591999999999-23.511039999999998-23.511039999999998-47.022079999999995-44.728320000000004-67.09248000000001-60.21119999999999-28.672-21.79072-33.83295999999999-17.77664-34.979839999999996-18.350080000000002h-26.37824V102.61333333333334c0 64.79872 52.75648 116.98176 116.98176 116.98176h95.76448v-21.79072c-0.5734400000000001-1.1468800000000001-3.44064-12.04224-24.657919999999997-40.1408z"  horiz-adv-x="1024" />

    
    <glyph glyph-name="ellipsis" unicode="&#58896;" d="M369.536 326.272H277.184V418.56h92.352v-92.352z m177.088 0H454.272V418.56H546.56v-92.352z m177.088 0H631.36V418.56h92.352v-92.352zM512 896a512 512 0 1 1 0-1024A512 512 0 0 1 512 896z m0-930.88a418.88 418.88 0 1 0 0 837.76 418.88 418.88 0 0 0 0-837.76z"  horiz-adv-x="1024" />

    
    <glyph glyph-name="book" unicode="&#59208;" d="M919.467 699.733c-12.8 10.667-42.667 23.467-110.933 23.467-29.867 0-64-2.133-102.4-8.533-110.933-14.933-164.267-40.533-189.867-57.6-25.6 17.067-78.933 42.667-189.867 57.6-38.4 4.267-72.533 8.533-102.4 8.533-76.8 0-106.667-17.067-113.067-23.467-19.2-12.8-32-38.4-32-61.867v-484.267c0-29.867 23.467-55.467 53.333-55.467 4.267 0 10.667 0 14.933 2.133 0 0 32 8.533 91.733 8.533 23.467 0 46.933-2.133 70.4-4.267 123.733-12.8 166.4-44.8 166.4-44.8 10.667-10.667 25.6-14.933 40.533-14.933 12.8 0 25.6 4.267 36.267 10.667 0 0 42.667 27.733 170.667 49.067 21.333 4.267 42.667 4.267 64 4.267 53.333 0 93.867-10.667 93.867-10.667 4.267-2.133 10.667-2.133 14.933-2.133 10.667 0 25.6 4.267 38.4 19.2 8.533 10.667 8.533 25.6 8.533 34.133v488.533c2.133 8.533 0 42.667-23.467 61.867zM902.4 153.6c0-8.533 0-8.533-2.133-10.667-4.267-4.267-4.267-2.133-6.4-2.133 0 0-44.8 12.8-106.667 12.8-23.467 0-49.067-2.133-70.4-6.4-138.667-23.467-183.467-53.333-189.867-57.6-6.4-4.267-14.933-4.267-23.467 2.133-4.267 4.267-53.333 42.667-189.867 55.467-25.6 2.133-51.2 4.267-74.667 4.267-68.267 0-102.4-10.667-102.4-10.667h-4.267c-6.4 0-10.667 6.4-10.667 12.8v484.267c0 10.667 6.4 23.467 12.8 27.733 0 0 21.333 14.933 87.467 14.933 27.733 0 61.867-2.133 98.133-8.533 106.667-14.933 151.467-38.4 170.667-51.2v-320c0-12.8 8.533-21.333 21.333-21.333s21.333 8.533 21.333 21.333v315.733c10.667 10.667 55.467 40.533 177.067 55.467 36.267 4.267 70.4 8.533 98.133 8.533 66.133 0 83.2-12.8 83.2-14.933 6.4-4.267 10.667-17.067 10.667-27.733v-484.267zM480 213.333c0-17.673 14.327-32 32-32s32 14.327 32 32c0 17.673-14.327 32-32 32-17.673 0-32-14.327-32-32z"  horiz-adv-x="1024" />

    
    <glyph glyph-name="bookshelf" unicode="&#58908;" d="M88 164.79999999999995c-4.8 3.2-9.6 8-11.2 14.4-1.6 6.4-1.6 12.8 1.6 17.6 4.8 8 12.8 12.8 20.8 12.8 4.8 0 8-1.6 11.2-3.2l377.6-209.6L896 131.20000000000005c16 33.6 20.8 67.2 12.8 100.8-4.8 17.6-11.2 30.4-16 36.8L481.6 128 88 347.20000000000005c-11.2 6.4-16 20.8-9.6 32 4.8 8 12.8 12.8 20.8 12.8 4.8 0 8-1.6 11.2-3.2l374.4-209.6L896 320c17.6 28.8 20.8 60.8 8 94.4-6.4 16-16 30.4-20.8 38.4L480 307.20000000000005 88 526.4c-4.8 3.2-9.6 8-11.2 14.4-1.6 6.4-1.6 12.8 1.6 17.6 4.8 8 12.8 12.8 20.8 12.8 4.8 0 8-1.6 11.2-3.2l374.4-209.6 403.2 145.6c22.4 35.2 27.2 70.4 17.6 104-3.2 11.2-8 19.2-12.8 25.6l-411.2-156.8L64 705.6l460.8 116.8L912 686.4l3.2-3.2c3.2-1.6 24-24 36.8-60.8 11.2-33.6 16-86.4-24-147.2 8-9.6 16-25.6 22.4-43.2 19.2-48 12.8-97.6-14.4-140.8 6.4-9.6 14.4-25.6 19.2-46.4 8-32 11.2-84.8-20.8-144l-4.8-8-446.4-145.6L88 164.79999999999995z m396.8 364.8l348.8 132.8-80 27.2-347.2-118.4c1.6 1.6 78.4-41.6 78.4-41.6z"  horiz-adv-x="1024" />

    
    <glyph glyph-name="line-height" unicode="&#58939;" d="M128 146.752V557.248l-58.496-58.496L24.256 544 160 679.744l22.656-22.656 113.152-113.152-45.248-45.248-58.112 58.112v-409.728l58.112 58.112 45.248-45.248-135.744-135.744-22.656 22.656L24.256 160l45.248 45.248 58.496-58.496zM386.752 704H960v-64H386.752V704z m0-640H960v-64H386.752v64z m0 512H960v-64H386.752V576z m0-128H960v-64H386.752V448z m0-128H960v-64H386.752V320z m0-128H960v-64H386.752v64z"  horiz-adv-x="1024" />

    


  </font>
</defs>
</svg>
